<svg width="52" height="52" viewBox="0 0 52 52" fill="none" xmlns="http://www.w3.org/2000/svg">
<path d="M50.2665 23.4666L28.5332 1.73329C27.8665 1.06663 26.9332 0.666626 25.9998 0.666626C25.0665 0.666626 24.1332 1.06663 23.4665 1.73329L18.7998 6.39996L24.2665 11.8666C24.7998 11.6 25.3332 11.4666 25.9998 11.4666C28.2665 11.4666 29.9998 13.2 29.9998 15.4666C29.9998 16.1333 29.8665 16.6666 29.5998 17.2L34.9332 22.5333C35.4665 22.2666 35.9998 22.1333 36.6665 22.1333C38.9332 22.1333 40.6665 23.8666 40.6665 26.1333C40.6665 28.4 38.9332 30.1333 36.6665 30.1333C34.3998 30.1333 32.6665 28.4 32.6665 26.1333C32.6665 25.4666 32.7998 24.9333 33.0665 24.4L27.7332 19.0666C27.5998 19.0666 27.4665 19.2 27.3332 19.2V33.0666C28.9332 33.6 29.9998 35.0666 29.9998 36.8C29.9998 39.0666 28.2665 40.8 25.9998 40.8C23.7332 40.8 21.9998 39.0666 21.9998 36.8C21.9998 35.0666 23.0665 33.6 24.6665 33.0666V19.0666C23.0665 18.5333 21.9998 17.0666 21.9998 15.3333C21.9998 14.6666 22.1332 14.1333 22.3998 13.6L16.9332 8.13329L1.73317 23.4666C1.0665 24.1333 0.666504 25.0666 0.666504 26C0.666504 26.9333 1.0665 27.8666 1.73317 28.5333L23.4665 50.2666C24.1332 50.9333 25.0665 51.3333 25.9998 51.3333C26.9332 51.3333 27.8665 50.9333 28.5332 50.2666L50.2665 28.5333C50.9332 27.8666 51.3332 26.9333 51.3332 26C51.3332 25.0666 50.9332 24.1333 50.2665 23.4666Z" fill="#F4511E"/>
</svg>
